<svg xmlns="http://www.w3.org/2000/svg" width="20" height="20" viewBox="0 0 20 20"><path d="M16.433587074279785 17.605467319488525C14.699212074279785 19.070310592651367 12.449250221252441 19.999998092651367 9.999991416931152 19.999998092651367C6.355458736419678 19.999998092651367 3.1561999320983887 17.992185592651367 1.4218635559082031 15.062498569488525L2.0711605548858643 12.06945151090622L4.94920802116394 11.535154342651367C5.6171770095825195 13.691365242004395 7.632763862609863 15.273435831069946 9.999991416931152 15.273435831069946C11.14838981628418 15.273435831069946 12.214836120605469 14.910155057907104 13.093742370605469 14.265623807907104L15.859368324279785 14.687498331069946L16.433587074279785 17.605467319488525Z" fill="#59c36a" fill-rule="evenodd"/><path d="M16.433584213256836 17.60547161102295L15.859365940093994 14.687507390975952L13.093745708465576 14.265633583068848C12.21484088897705 14.910163700580597 11.148396730422974 15.273443818092346 10 15.273443818092346L10 19.999998092651367C12.449254035949707 19.999998092651367 14.699212074279785 19.070312976837158 16.433584213256836 17.60547161102295Z" fill="#00a66c" fill-rule="evenodd"/><path d="M4.726564884185791 10.000000953674316C4.726564884185791 10.539024353027344 4.808596134185791 11.054648876190186 4.949221134185791 11.535156726837158L1.4218757152557373 15.0625C0.5429690480232239 13.585938453674316 0 11.851524353027344 0 10.000000953674316C0 8.148399829864502 0.5429690480232239 6.414064049720764 1.4218757152557373 4.937501907348633L4.252853870391846 5.424728363752365L4.949221134185791 8.464844703674316C4.808596134185791 8.945274353027344 4.726564884185791 9.460899829864502 4.726564884185791 10.000000953674316Z" fill="#ffda2d" fill-rule="evenodd"/><path d="M20 9.999997615814209C20 13.046830177307129 18.589882850646973 15.777336120605469 16.433594226837158 17.605459213256836L13.093750476837158 14.265618324279785C13.773398876190186 13.773392677307129 14.347655773162842 13.117142677307129 14.72265625 12.343745231628418L10 12.343745231628418C9.67183592915535 12.343745231628418 9.4140625 12.085893630981445 9.4140625 11.757808208465576L9.4140625 8.242186903953552C9.4140625 7.914023160934448 9.67183592915535 7.65625 10 7.65625L19.25 7.65625C19.531249046325684 7.65625 19.77734375 7.855429321527481 19.82421875 8.136679023504257C19.94140625 8.746092438697815 20 9.378865361213684 20 9.999997615814209L20 9.999997615814209Z" fill="#4086f4" fill-rule="evenodd"/><path d="M14.722695350646973 12.343745231628418C14.347695350646973 13.117142677307129 13.77339792251587 13.773392677307129 13.093788623809814 14.265618324279785L16.433594226837158 17.605459213256836C18.589882850646973 15.777336120605469 20 13.046869277954102 20 9.999997615814209C20 9.378865361213684 19.94140625 8.746092438697815 19.824179649353027 8.136679023504257C19.77734375 7.855429321527481 19.531210899353027 7.65625 19.249961853027344 7.65625L10 7.65625L10 12.343745231628418L14.722695350646973 12.343745231628418Z" fill="#4175df" fill-rule="evenodd"/><path d="M16.597652435302734 2.79292893409729C16.609371185302734 2.95699143409729 16.539058685302734 3.1093740463256836 16.433589935302734 3.226522445678711L13.925776481628418 5.7226152420043945C13.726595878601074 5.9335527420043945 13.398470878601074 5.9569902420043945 13.164095878601074 5.7812089920043945C12.238236427307129 5.089841842651367 11.148391723632812 4.726561069488525 9.999993324279785 4.726561069488525C7.632765293121338 4.726561069488525 5.617177963256836 6.3085527420043945 4.949208736419678 8.46484088897705L1.4218635559082031 4.937498569488525C3.1562002897262573 2.007812023162842 6.355459690093994 0 9.999993324279785 0C12.332025527954102 0 14.605463981628418 0.8593747615814209 16.386714935302734 2.35933518409729C16.515621185302734 2.4648430347442627 16.585933685302734 2.62886643409729 16.597652435302734 2.79292893409729L16.597652435302734 2.79292893409729Z" fill="#ff641a" fill-rule="evenodd"/><path d="M13.164068222045898 5.781210899353027C13.398443698883057 5.957030773162842 13.726529836654663 5.933554649353027 13.925749063491821 5.722617149353027L16.433566570281982 3.2265233993530273C16.539074420928955 3.109375 16.609386444091797 2.95703125 16.597628593444824 2.7929296493530273C16.58587074279785 2.6288280487060547 16.515597343444824 2.46484375 16.386691093444824 2.3593358993530273C14.60547685623169 0.859375 12.332035541534424 0 10 0L10 4.7265625C11.14840054512024 4.7265625 12.238246202468872 5.089843273162842 13.164068222045898 5.781210899353027Z" fill="#f0805f" fill-rule="evenodd"/></svg>