<svg xmlns="http://www.w3.org/2000/svg" width="16" height="15" viewBox="0 0 16 15"><path d="M3.3333334922790527 1.666666865348816C3.3333334922790527 2.6000003814697266 2.6000001430511475 3.333333730697632 1.6666667461395264 3.333333730697632C0.7333333492279053 3.333333730697632 0 2.6000003814697266 0 1.666666865348816C0 0.73333340883255 0.7333333492279053 0 1.6666667461395264 0C2.6000001430511475 0 3.3333334922790527 0.73333340883255 3.3333334922790527 1.666666865348816ZM3.3333334922790527 4.6666669845581055L0 4.6666669845581055L0 15.333334922790527L3.3333334922790527 15.333334922790527L3.3333334922790527 4.6666669845581055ZM8.666666984558105 4.6666669845581055L5.333333492279053 4.6666669845581055L5.333333492279053 15.333334922790527L8.666666984558105 15.333334922790527L8.666666984558105 9.7333345413208C8.666666984558105 6.600001335144043 12.666666984558105 6.333334445953369 12.666666984558105 9.7333345413208L12.666666984558105 15.333334922790527L16 15.333334922790527L16 8.600000381469727C16 3.3333334922790527 10.066666603088379 3.5333335399627686 8.666666984558105 6.133334159851074L8.666666984558105 4.6666669845581055Z" fill="#d28a4c" fill-rule="evenodd"/></svg>