<svg xmlns="http://www.w3.org/2000/svg" width="18" height="18" viewBox="0 0 18 18"><path d="M9.000001907348633 4.090909361839294C7.301675319671631 4.090909361839294 4.988456964492798 4.236503005027771 3.51950740814209 4.3435598611831665C3.0316686630249023 4.379113435745239 2.653846502304077 4.765287399291992 2.653846502304077 5.236961603164673L2.653846502304077 5.7699620723724365L8.533037185668945 8.85802149772644C8.82344388961792 9.010557889938354 9.176560878753662 9.010557889938354 9.466967105865479 8.858021020889282L15.34615707397461 5.769961833953857L15.34615707397461 5.236961603164673C15.34615707397461 4.765287518501282 14.968335151672363 4.37911331653595 14.480496406555176 4.343559741973877C13.01154613494873 4.236503005027771 10.698328018188477 4.090909361839294 9.000001907348633 4.090909361839294ZM15.34615707397461 7.01791787147522L10.027324676513672 9.811647176742554C9.38843059539795 10.14722752571106 8.611574649810791 10.147228479385376 7.97268009185791 9.811647176742554L2.653846502304077 7.0179173946380615L2.653846502304077 12.763038873672485C2.653846502304077 13.234713792800903 3.031669020652771 13.620887994766235 3.519507884979248 13.65644097328186C4.988457441329956 13.763497591018677 7.301675319671631 13.909091234207153 9.000001907348633 13.909091234207153C10.698328018188477 13.909091234207153 13.01154613494873 13.763497591018677 14.480496406555176 13.65644097328186C14.968335151672363 13.620887994766235 15.34615707397461 13.234713792800903 15.34615707397461 12.763038873672485L15.34615707397461 7.01791787147522ZM3.430826783180237 3.255877375602722C4.900659561157227 3.148756220936775 7.2530083656311035 3.000000238418579 9.000001907348633 3.000000238418579C10.746994972229004 3.000000238418579 13.099343299865723 3.1487561762332916 14.56917667388916 3.2558773458004C15.667634963989258 3.335932821035385 16.500003814697266 4.204413890838623 16.500003814697266 5.236961603164673L16.500003814697266 12.763038873672485C16.500003814697266 13.795586824417114 15.66763687133789 14.664067506790161 14.56917667388916 14.744122743606567C13.099344253540039 14.851245164871216 10.74699592590332 15.000000238418579 9.000001907348633 15.000000238418579C7.2530083656311035 15.000000238418579 4.900660037994385 14.851245164871216 3.4308271408081055 14.744122743606567C2.3323678970336914 14.664067506790161 1.5 13.795586824417114 1.5 12.763038873672485L1.5 5.236961603164673C1.5 4.204414248466492 2.3323673605918884 3.33593288064003 3.430826783180237 3.255877375602722Z" fill="#f7f3ec" fill-rule="evenodd"/></svg>